<?xml version="1.0" encoding="UTF-8"?><svg xmlns="http://www.w3.org/2000/svg" xmlns:xlink="http://www.w3.org/1999/xlink" height="1635.7" preserveAspectRatio="xMidYMid meet" version="1.0" viewBox="38.9 2.7 661.7 1635.7" width="661.7" zoomAndPan="magnify"><g id="change1_1"><path d="m445.55 362.33c3.772 6.417 7.378 13.803 13.219 18.46 43.947 35.032 95.463 59.443 150.54 54.02 5.982-0.589 33.301-0.182 20.236 11.052-22.216 19.103-19.645 18.43-27.594 21.919-28.765 12.627-88.719 29.719-105.56 30.567-9.382 0.472-17.426 5-28.352 6.307-3.217 0.385-3.94 2.175-4.613 3.27-7.665 12.479-3.534 6.238-3.626 49.444-2e-3 1.002 3.086 65.31 8.945 94.939 3.246 16.413-3.738 57.217 0.298 60.979 4.82 4.493 5.81 7.764 13.782 10.413 51.384 17.076 199.63 105.04 214.45 121.38 3.412 3.763 3.156 9.436 0.339 13.713-26.015 39.508-42.915 32.553-73.517 89.594-20.191 37.635-41.554 39.415-41.496 63.194 0.042 17.519-1.707 13.559-4.587 21.441-3.606 9.868-8.479 19.223-11.672 29.268-3.628 11.413-20.285 15.294-32.068 13.798-45.728-5.804-37.257 2.802-49.966 19.953-18.619 25.124-44.155 53.463-70.912 69.655-32.931 19.927-45.141 7.299-53.191 0.493-1.813-1.533-3.088-0.996-5.582-0.018-7.976 3.128-6.954 0.736-6.134 9.637 5.813 63.063 5.955 12.219 4.622 85.071 0 130.94-37.72 249.04-6.718 330.04 2.293 5.99 4.695 13.59 9.02 18.401 4.451 4.951 6.904 4.999 7.261 12.49-2.494 3.57-4.128 7.922-7.439 10.678-4.695 3.909-18.174-2.182-21.946-5.027-6.875-5.186-12.63-3.682-17.798-6.644-24.036-13.779-40.788 4.679-45.226 6.626-1.911 0.838-7.712 4.168-7.712 4.168-4.804 1.22-9.454 2.77-13.606 5.57-1.701 1.147-16.621-3.505-17.368-5.654-1.958-5.634-9.062-13.307-4.603-18.125 3.588-3.875 2.202-4.494 6.899-7.58 18.331-12.045 16.656-34.191 20.349-53.548 3.602-18.882 9.804-36.914 11.471-56.303 2.394-27.852-6.471-107.46-21.693-149.2-8.189-22.45-1.745-78.513 1.31-109.12 13.875-139.06 5.478-132.74-13.03-198.53-74.238-263.88-71.429-255.96-11.962-365.42 5.195-9.563 17.845-26.741 19.159-62.524 0.612-16.662-0.831-34.009-6.214-49.638-20.579-59.75-17.309-57.303-21.32-58.626-9.668-3.189-18.274-8.642-27.459-12.858-1.638-0.752-3.018-2.823-4.875-2.146-1.57 0.572-1.84 2.801-2.827 4.211-13.278 18.976-3.323 0.269-21.982 40.525-19.544 42.166-21.609 45.64-29.867 48.894-7.019 2.766-18.741 12.108-25.61 5.143-12.71-12.888-43.393-149.74-46.146-168-3.784-25.077-2.86-36.722-5.1-53.251-9.13-67.386 10.189-58.262 12.535-74.569 0.615-4.277 0.053-8.621-0.113-12.939-5.331-138.31 366.98-275.26 427.03-230.2 18.784 14.095 47.298 91.806-96.642 193.88-18.33 12.998-58.071 34.685-59.039 42.503-1.324 10.697-2.859 19.003 5.932 40.027 4.766 11.397 5.165 23.803 26.81 25.783 55.059 5.035 68.393-8.967 80.952 12.401zm-163.79-25.365c-0.187-34.212-14.64-26.9-25.307-27.004-2.659-0.026-103.9 25.225-127.63 21.547-34.293-5.315-30.189-8.157-28.22-11.02 4.017-5.842 3.953-6.138-1.134-7.717-1.116-0.346-1.872-0.101-2.236 0.942-1.185 3.395-3.391 6.354-4.204 9.903-4.013 17.528-15.236 24.933-19.152 35.98-1.57 4.431-3.035 16.671-2.075 20.476 2.316 9.177-0.361 10.668 2.217 16.899 6.119 14.788 8.522 41.989 18.966 69.637 3.376 8.936 25.301 58.346 37.651 36.132 1.173-2.109 2.099-4.305 2.971-6.528 5.885-15.018 10.976-12.903 11.005-23.372 0.02-7.294-6.094-5.654-7.439-11.521-4.47-19.491 8.022-18.251 19.121-49.126 4.848-13.488 7.662-9.258 12.257-17.297 10.972-19.193 17.584-23.213 24.034-24.862 50.62-12.946 91.049-6.554 89.175-33.069zm134.12 182.14c-1.77-7.52-11.716-6.651-13.879 1.332-3.067 11.321-22.987 61.992-23.973 83.441-2.12 46.104 21.827 56.391 24.166 58.906 2.422 2.604 11.411 10.836 19.173 14.076 4.362 1.821-1.167-4.829 1.401-43.422 1.968-29.585 0.202-84.213-6.888-114.33z" fill="inherit"/></g></svg>